<svg width="900" height="403" viewBox="0 0 900 403" fill="none" xmlns="http://www.w3.org/2000/svg">
<path d="M0 122L16.7 132C33.3 142 66.7 162 100 177.3C133.3 192.7 166.7 203.3 200 193.3C233.3 183.3 266.7 152.7 300 155.3C333.3 158 366.7 194 400 210.5C433.3 227 466.7 224 500 216.3C533.3 208.7 566.7 196.3 600 185C633.3 173.7 666.7 163.3 700 154.8C733.3 146.3 766.7 139.7 800 133.3C833.3 127 866.7 121 883.3 118L900 115V403H883.3C866.7 403 833.3 403 800 403C766.7 403 733.3 403 700 403C666.7 403 633.3 403 600 403C566.7 403 533.3 403 500 403C466.7 403 433.3 403 400 403C366.7 403 333.3 403 300 403C266.7 403 233.3 403 200 403C166.7 403 133.3 403 100 403C66.7 403 33.3 403 16.7 403H0V122Z" fill="black"/>
</svg>
